<svg xmlns="http://www.w3.org/2000/svg" width="301.333" height="150.666" viewBox="0 0 7972.78 3986.38" shape-rendering="geometricPrecision" text-rendering="geometricPrecision" image-rendering="optimizeQuality" fill-rule="evenodd" clip-rule="evenodd"><defs><style>.fil0{fill:#60b238;fill-rule:nonzero}</style></defs><g id="Слой_x0020_1"><path class="fil0" d="M2290.34 2211.82H2154.6v-479.91h488.66v479.91h-135.71v-386.68h-217.21zm418.75-348.3v475.15h125.09v-162.49c41.92 45.27 110.21 48.69 126.67 48.69 119.3 0 192.51-76.13 192.51-186.51 0-115.17-72.41-187.84-190.03-187.84-29.65 0-87.23 4.8-134.95 54.86h-2.46l.81-41.86h-117.64zm119.29 173.46c0-97.33 60.08-116.52 97.93-116.52 37.02 0 97.07 19.19 97.07 116.52 0 60.36-25.49 117.97-97.07 117.97-73.22 0-97.93-57.61-97.93-117.97zm635.11 133.05c-46.05 43.16-90.42 54.84-139.83 54.84-134.92 0-139.88-101.48-139.88-143.29v-218.06h125.06v201.58c0 69.27 23.92 89.85 69.95 89.85 78.94 0 84.7-70.63 84.7-96v-195.43h125.11v348.3h-125.11v-41.79zm304.46-104.93h76.52c59.19 0 71.54 17.84 71.54 41.16 0 15.07-8.26 35.65-69.99 35.65h-78.07v-76.81zm-125.06-201.58v348.3h248.46c90.49 0 153-17.82 153-89.12 0-54.85-30.48-78.84-99.55-91.17v-2.07c45.26-6.17 84.77-34.29 84.77-81.58 0-84.36-98.74-84.36-137.41-84.36h-249.27zm125.06 69.97h67.41c35.39 0 65.8 5.48 65.8 34.25 0 31.57-47.7 32.25-68.26 32.25h-64.95v-66.5zm434.34 42.49c0-51.42 54.29-55.52 76.52-55.52 14 0 65.79.69 67.48 45.93v9.59c-2.47 34.28-35.38 27.43-127.49 39.08-75.74 10.28-155.54 29.46-155.54 109.02 0 28.8 12.35 100.79 145.63 100.79 51.04 0 106.99-13.05 139.84-47.31h2.54l10.65 34.26h131.62v-6.15c-23.85-4.81-25.5-28.11-24.69-65.83l2.47-159.08c.84-40.42-3.28-130.24-191.67-130.24-45.26 0-190.88 4.1-196.64 125.46h119.28zm144.81 91.87c0 69.94-60.89 87.1-91.29 87.1-23.08 0-64.21-7.57-64.21-40.46 0-39.1 46.88-46.64 73.24-50.07 48.54-6.86 44.41-4.79 82.26-18.52v21.95zm138.22-134.36v-69.97h401.46v69.97h-138.21v278.33h-125.03v-278.33zm561.1-108.35h311.78v-93.23h-447.57v479.91h274.78c133.31 0 218.83-46.59 218.83-144.66 0-153.55-171.1-157-218.83-157h-138.99v-85.02zm0 178.27h112.67c32.99 0 98.75 3.44 98.75 61.01 0 45.26-47.74 54.16-101.18 54.16h-110.24v-115.17zm520.77-27.43c0-51.42 54.32-55.52 76.48-55.52 14 0 65.86.69 67.52 45.93v9.59c-2.5 34.28-35.38 27.43-127.6 39.08-75.64 10.28-155.43 29.46-155.43 109.02 0 28.8 12.31 100.79 145.59 100.79 51.01 0 106.96-13.05 139.87-47.31h2.44l10.72 34.26h131.62v-6.15c-23.77-4.81-25.5-28.11-24.65-65.83l2.46-159.08c.82-40.42-3.31-130.24-191.73-130.24-45.19 0-190.85 4.1-196.6 125.46h119.31zm144.78 91.87c0 69.94-60.89 87.1-91.3 87.1-23.04 0-64.17-7.57-64.17-40.46 0-39.1 46.85-46.64 73.16-50.07 48.58-6.86 44.45-4.79 82.31-18.52v21.95zm302.75 143.97h-125.06v-348.3h125.06v130.97h150.57v-130.97h125.06v348.3h-125.06v-147.4h-150.57zm591.54-348.3h138.99l-171.91 163.17 180.17 185.13h-146.48l-134.9-152.19h-2.43v152.19h-125.03v-348.3h125.03v139.89h2.43z"/><path fill="#373435" fill-rule="nonzero" d="M1246.41 2213.07h313.23v-313.23h-313.23z"/><path class="fil0" d="M1882.29 1577.64v469.9h-63.9c-27.59-232.39-173.61-378.37-406.04-405.96v-63.94h469.94zm-635.55-165.59v389.87h82.83c217.97 0 328.49 110.5 328.49 328.4v82.83h389.84v-801.1h-801.16z"/></g></svg>